<?xml version="1.0" encoding="utf-8"?>
<!-- Generator: Adobe Illustrator 20.1.0, SVG Export Plug-In . SVG Version: 6.00 Build 0)  -->
<svg version="1.1" id="Layer_1" xmlns="http://www.w3.org/2000/svg" xmlns:xlink="http://www.w3.org/1999/xlink" x="0px" y="0px"
	 viewBox="0 0 960 560" style="enable-background:new 0 0 960 560;" xml:space="preserve">
<style type="text/css">
	.st0{clip-path:url(#SVGID_2_);}
	.st1{clip-path:url(#SVGID_4_);}
	.st2{clip-path:url(#SVGID_4_);fill:#BC1717;}
	.st3{clip-path:url(#SVGID_4_);fill:#E25C5C;}
	.st4{font-family:'Bungee-Regular';}
	.st5{font-size:150px;}
	.st6{letter-spacing:15;}
	.st7{font-size:24.5px;}
	.st8{font-size:35px;}
	.st9{letter-spacing:1;}
</style>
<g id="Artwork_1">
	<g>
		<defs>
			<rect id="SVGID_1_" x="21" y="16" width="960" height="560"/>
		</defs>
		<clipPath id="SVGID_2_">
			<use xlink:href="#SVGID_1_"  style="overflow:visible;"/>
		</clipPath>
		<g class="st0">
			<defs>
				<rect id="SVGID_3_" x="21" y="16" width="960" height="560"/>
			</defs>
			<clipPath id="SVGID_4_">
				<use xlink:href="#SVGID_3_"  style="overflow:visible;"/>
			</clipPath>
			<path class="st1" d="M448.3,305.5c-7.5-1.6-14.9-3.1-23.5-5c6.8,22.6,9.4,44.6,7,67c-1.5,14.4-1.5,14.5-15.4,12.2
				c-13.4-2.4-14-2.3-13.2,11.1c1.1,18.7-13.8,26.3-25,34.7c-26.3,19.8-54.3,37.3-85.5,48.7c-14.9,5.4-29.8,9.9-45.3,13.1
				c-2.8,0.5-5.9,1-8.7,0.4C180.5,476,129.2,451.2,86.8,409c-6.9-6.9-6.4-14.4-5.8-22.2c0.5-8.2-2-9.8-10-8
				c-17.6,4-17.4,3.6-19.1-14.2c-1.9-21.4,0.6-42.2,7.3-64.2c-6.4,1.5-11.6,2.7-16.8,3.9c-9.9,2.3-12.5,0.2-9.2-9.7
				c7.1-21,10.6-43.2,21-63.1c5.3-10,10.3-20.2,16.2-29.9c3.1-5.1,4.3-8.4,0.8-14.4c-15.5-26.3,0.2-66.7,29.1-76.7
				c9.5-3.2,19.1-3.1,27.7,1.9c5.9,3.4,10.3,2.7,16-0.2c20.6-10.3,41.1-23.8,65-20.5c22.2,3.1,43.4,3.3,65.6,0
				c21.4-3.1,40.4,8.7,58.9,18.3c8,4.1,14.2,5.6,23,1.3c16.5-8,36.3-1.4,48.6,15c14.8,19.7,19.6,40.9,5.9,63.3
				c-3,4.8-0.3,7.3,1.7,10.7c17.3,27.6,29.5,57.2,34.9,89.5C448.6,294.8,449.8,299.8,448.3,305.5 M401.9,257
				c-3.9-18.7-10.9-36.1-21-51.8c-9.3-14.4-19.8-28-30.3-41.6c-4.4-5.7-2.7-10.6,1.2-14.8c4.1-4.4,10-7.3,15.8-5
				c6.2,2.6,4.7,8.4,2.5,13.2c-4.5,9.7-1.1,16.5,6.4,23c4,3.4,5.4,2,7.5-1c8.1-10.7,6.5-31-3.2-40.8c-8.8-9-22.7-9.4-34.7,0.8
				c-5.7,4.8-9.6,4.3-15.4,1.1c-17.9-10-35.4-22.3-56.5-22.7c-20.9-0.4-41.9,0.5-62.9-0.2c-22.6-0.9-41.7,12.5-60.8,23.3
				c-5.3,3-9,3.6-14.4-1.1c-11.3-9.5-22.6-9.9-30.9-2.9c-11.3,9.6-14,30.3-5.4,42.3c2.5,3.4,4.5,5.6,8.1,0.5c5.1-7,8.1-13.7,4-22.3
				c-2-4.2-4.3-9.4,1-12.8c5.1-3.3,10.3-0.8,14.2,2.4c6.4,5.1,8.7,11,2.5,18.7c-20.6,25.6-36.7,54-46.6,85.5
				c-1.6,5.1-5.9,11.2-2,15.2c2.7,2.8,8.6-2,13.1-2.9c1.9-0.3,4-2.4,6.4,0.5c-7.3,18.7-7.6,39-10,58.9c-0.9,6.8-0.2,13.9,9.3,10.9
				c12.2-3.9,13.9,1.6,12.7,11.6c-0.5,4.3,0.3,8.8-0.2,13.2c-0.8,7,2.2,11.2,7.6,15.6c33.6,26.5,71.3,44.7,112.1,57
				c9.7,2.9,12.3,0.5,12.7-9c1-17.8-4-34.1-9.6-50.4c-2.4-6.8-1.3-9.6,6.2-9.2c9.7,0.5,19.1-1.9,27.7-6c6.8-3.2,15.5-6.2,16.5-14.8
				c1.3-11.3,0.3-22.9,0.3-35.5c-30.5,20.9-59.8,17.7-89.5,0.4c-0.8,11.1-1.2,21.2,0.4,31.3c0.3,2,1.9,4.6-0.8,5.7
				c-2.7,1.1-5.2-1-6.1-3.3c-2.6-6.5-4.6-13-5.2-20.1c-1.4-17.2,3.3-33.5,7.9-49.6c4.4-15.8,3.9-31.1-2.9-46.1
				c-7.2-15.8-11.8-32.2-9.4-50c1-6.6-0.8-9.6-7.4-4.5c-1.8,1.4-4.3,4-6.8,1.7c-1.9-1.8-0.8-4.8-0.5-7.3c0.9-12,9.2-15.8,19.2-17.4
				c10-1.6,19.2-4.5,26.4-12.2c2-2.3,4.7-3,7.9-3.6c15-2.7,29.8-3,44.8-0.2c3.3,0.6,6.9,0.6,9,3.4c6.9,8.8,16.6,11,26.9,13
				c14.5,2.8,18.8,10.8,15.8,26.2c-4.6-0.9-7.3-6-12.9-6.1c-2.3,8.8-0.9,15.5,8,20c6.5,3.3,12.5,7.6,18.5,11.8
				C354.1,217.2,379.3,235.4,401.9,257 M241.8,229.5c-2.5-5.3-0.4-11.8-8.2-11c-7.5,0.9-7.1,6-7,11.2c0.1,9.9-0.3,19.7,0.3,29.6
				c0.6,9.2,4.5,16.7,15.1,16.8c10.6,0,14.5-7.5,15.2-16.7c0.6-9.5,0.4-19,0.3-28.4c-0.1-4.8,1.5-10.4-5.8-12.3
				C243.5,216.8,244.6,223.8,241.8,229.5 M248.9,191c5.8,12.5,5.8,12.5,14.6,2.7c4.7,6.8,5.8,14.8,8.3,23c6.9-6.8,9.2-15.3,7.3-23.4
				s-9.7-11.4-17.7-12.7c-12.4-1.9-24.9-2.3-37.2,0c-19.7,3.6-24.3,18.6-10.3,35.6c2.9-7.4,2.5-16,8.2-21.9c3.8,1.8,3.7,6.9,8.3,7.4
				c1.7-3,3.4-6.1,5.8-10.4C240,200.6,244.2,202.6,248.9,191 M193.5,191c10.2-13.2,22.5-20.4,37.8-21.5c6.9-0.5,7.3-9.3,6-9.4
				c-10.9-0.5-15.2-11.1-23.9-14c-1.4-0.4-3.4,0.6-5.2,1.3C195.7,151.6,188.4,171.7,193.5,191 M214.3,280.4
				c-7.5,18-5.2,23.4,11,27.9c11.5,3.2,23.2,3.1,34.6-0.3c16.6-5,18.6-9.4,11.8-26.9c-2.3,5.4-4.3,10.3-6.6,15.2
				c-0.9,1.7-2.8,5-4.6,2.2c-6.5-10.6-8.8-1.6-12.7,3.6c-3.7-11.3-7.8-6.1-11.3-0.8c-2.4-3.4-4.2-6.1-6.4-9.4c-2.6,2.9-4.7,5.5-7,8
				C218.1,294.4,216.8,287.9,214.3,280.4 M290.6,181.9c-1.7-8.9-1.4-18.7-6.7-27.2c-6.7-10.7-15.6-11.2-22.2-1.1
				c-1.9,3.1-4.2,3.8-7.3,3.4c-4.3-0.4-8.2-0.5-8.3,5.6c-0.1,5.6,3.4,6.7,7.8,6.9c12,0.8,21.8,5.7,29.3,15.2
				c1.3,1.6,2.5,4.1,5.1,3.1C290.9,187,290.3,184.3,290.6,181.9"/>
			<path class="st2" d="M401.9,257c-22.6-21.6-47.8-39.8-73-57.9c-5.9-4.3-12-8.6-18.5-11.8c-8.8-4.5-10.2-11.2-8-20
				c5.6,0,8.3,5.3,12.9,6c3-15.3-1.3-23.3-15.8-26.1c-10.3-2-20-4.2-26.9-13c-2.2-2.8-5.7-2.8-9-3.4c-15-2.9-29.8-2.5-44.8,0.2
				c-3,0.5-5.7,1.4-7.9,3.6c-7.2,7.6-16.4,10.6-26.4,12.2c-10,1.6-18.3,5.6-19.2,17.4c-0.2,2.6-1.4,5.6,0.5,7.3
				c2.4,2.3,4.8-0.3,6.8-1.7c6.7-5.1,8.3-2,7.4,4.5c-2.5,17.8,2.2,34.1,9.4,50c6.8,15,7.3,30.3,2.9,46.1
				c-4.4,16.2-9.2,32.4-7.9,49.6c0.5,7.1,2.6,13.7,5.2,20.1c1,2.4,3.4,4.4,6.1,3.3s1.1-3.7,0.8-5.7c-1.6-10.1-1.2-20.2-0.4-31.3
				c29.7,17.2,59,20.5,89.5-0.4c0,12.6,1,24.1-0.3,35.5c-1,8.5-9.7,11.5-16.5,14.8c-8.6,4.2-18,6.6-27.7,6c-7.6-0.4-8.6,2.4-6.2,9.2
				c5.7,16.3,10.6,32.6,9.6,50.4c-0.5,9.6-3,12-12.7,9c-40.8-12.3-78.5-30.5-112.1-57c-5.5-4.3-8.4-8.6-7.6-15.6
				c0.5-4.3-0.3-8.8,0.2-13.2c1.2-10-0.5-15.5-12.7-11.6c-9.6,3-10.1-4.1-9.3-10.9c2.4-19.9,2.7-40.3,10-58.9c-2.4-3-4.4-1-6.4-0.5
				c-4.6,0.9-10.6,5.7-13.1,2.9c-3.8-4,0.5-10.2,2-15.2c9.8-31.6,26-59.8,46.6-85.5c6.2-7.8,3.9-13.7-2.5-18.7
				c-3.9-3.1-9.3-5.7-14.2-2.4c-5.3,3.4-3,8.7-1,12.8c4.1,8.6,1.1,15.3-4,22.3c-3.6,5-5.6,2.9-8.1-0.5c-8.5-12.1-5.9-32.7,5.4-42.3
				c8.3-7,19.6-6.7,30.9,2.9c5.4,4.5,9.2,4,14.4,1.1c19.2-10.8,38.2-24.1,60.8-23.3c21,0.8,42-0.2,62.9,0.2
				c21.1,0.4,38.7,12.8,56.5,22.7c5.7,3.2,9.7,3.8,15.4-1.1c11.8-10.1,25.7-9.8,34.7-0.8c9.7,9.9,11.2,30.2,3.2,40.8
				c-2.3,3-3.7,4.4-7.5,1c-7.4-6.6-10.9-13.5-6.4-23c2.3-4.8,3.8-10.8-2.5-13.2c-5.8-2.4-11.7,0.5-15.8,5c-3.9,4.2-5.6,9-1.2,14.8
				c10.4,13.7,21,27.1,30.3,41.6C391,220.9,397.9,238.3,401.9,257"/>
			<path class="st3" d="M241.8,229.5c2.8-5.8,1.8-12.8,9.9-10.9c7.4,1.7,5.8,7.4,5.8,12.3c0.1,9.5,0.3,19.1-0.3,28.4
				c-0.6,9.2-4.6,16.7-15.2,16.7c-10.6,0-14.4-7.6-15.1-16.8c-0.6-9.8-0.3-19.7-0.3-29.6c0-5.2-0.4-10.4,7-11.2
				C241.3,217.8,239.3,224.3,241.8,229.5"/>
			<path class="st2" d="M193.5,191c-5.2-19.3,2.2-39.4,14.6-43.7c1.7-0.5,3.8-1.7,5.2-1.3c8.8,2.9,13.1,13.5,23.9,14
				c1.4,0.1,1,8.8-6,9.4C216,170.7,203.8,177.7,193.5,191"/>
			<path class="st2" d="M290.6,181.9c-0.2,2.5,0.3,5.2-2.3,6c-2.6,1-3.9-1.6-5.1-3.1c-7.5-9.5-17.3-14.4-29.3-15.2
				c-4.3-0.3-7.9-1.3-7.8-6.9c0.1-6.1,3.9-5.9,8.3-5.6c3,0.3,5.3-0.3,7.3-3.4c6.6-10.1,15.6-9.6,22.2,1.1
				C289.2,163.1,288.8,172.9,290.6,181.9"/>
		</g>
		<g class="st0">
			<text transform="matrix(1 0 0 1 491 315.6504)"><tspan x="0" y="0" class="st4 st5 st6">OS</tspan><tspan x="238" y="0" class="st4 st5">O</tspan></text>
		</g>
		<g class="st0">
			<text transform="matrix(1 0 0 1 457.5 356.2246)"><tspan x="0" y="0" class="st4 st7">TH</tspan><tspan x="36.4" y="0" class="st4 st7">E</tspan></text>
		</g>
		<g class="st0">
			<text transform="matrix(1 0 0 1 510.8359 356.2246)"><tspan x="0" y="0" class="st4 st8 st9"> BE</tspan><tspan x="59.9" y="0" class="st4 st8 st9">A</tspan><tspan x="86.7" y="0" class="st4 st8 st9">R</tspan><tspan x="114" y="0" class="st4 st8"> </tspan></text>
		</g>
		<g class="st0">
			<text transform="matrix(1 0 0 1 633.9639 356.2246)"><tspan x="0" y="0" class="st4 st7">O</tspan><tspan x="18.9" y="0" class="st4 st7">F</tspan></text>
		</g>
		<g class="st0">
			<text transform="matrix(1 0 0 1 668.9258 356.2246)" class="st4 st8"> </text>
		</g>
		<g class="st0">
			<text transform="matrix(1 0 0 1 678.0605 356.2246)"><tspan x="0" y="0" class="st4 st7">TE</tspan><tspan x="33.9" y="0" class="st4 st7">S</tspan><tspan x="50.4" y="0" class="st4 st7">TIN</tspan><tspan x="102.4" y="0" class="st4 st7">G</tspan></text>
		</g>
		<g class="st0">
			<text transform="matrix(1 0 0 1 798.6963 356.2246)" class="st4 st8"> </text>
		</g>
		<g class="st0">
			<text transform="matrix(1 0 0 1 807.8311 356.2246)"><tspan x="0" y="0" class="st4 st7">APP</tspan><tspan x="53.9" y="0" class="st4 st7">S</tspan></text>
		</g>
	</g>
</g>
</svg>
